<svg width="296" height="251" viewBox="0 0 296 251" fill="none" xmlns="http://www.w3.org/2000/svg">
<g clip-path="url(#clip0_3_358)">
<path d="M276.448 219.656C276.448 219.656 233.293 199.717 248.454 185.891C263.614 172.065 276.448 219.656 276.448 219.656Z" fill="#E6E6E6"/>
<path d="M275.697 224.308C275.697 224.308 255.861 158.899 285.07 162.027C314.279 165.156 275.697 224.308 275.697 224.308Z" fill="#E6E6E6"/>
<path d="M261.235 218.507L262.067 229.449L262.081 229.638C262.08 231.346 262.166 233.054 262.338 234.754C263.468 245.914 268.325 251 274 251C279.676 251 284.321 245.914 285.451 234.754C285.623 233.054 285.709 231.346 285.709 229.638L285.715 229.485L285.719 229.449L286.554 218.507H261.235Z" fill="#E6E6E6"/>
<path d="M285.719 229.448L285.715 229.485L285.709 229.637C285.709 231.346 285.623 233.054 285.451 234.753H262.338C262.166 233.054 262.08 231.346 262.081 229.637L262.067 229.448H285.719Z" fill="white"/>
<path d="M32.5896 229.178C32.5896 229.178 16.5427 221.764 22.1799 216.623C27.8172 211.481 32.5896 229.178 32.5896 229.178Z" fill="#E6E6E6"/>
<path d="M21.9626 228.392L22.5419 236.005L22.5511 236.137C22.5506 237.325 22.6104 238.514 22.7304 239.696C23.5165 247.461 26.8955 251 30.8446 251C34.7936 251 38.0255 247.461 38.8116 239.696C38.9316 238.514 38.9915 237.325 38.9909 236.137L38.9955 236.031L38.9978 236.005L39.5794 228.392L21.9626 228.392Z" fill="#E6E6E6"/>
<path d="M201.126 118.134C201.728 117.717 202.201 117.139 202.492 116.465C202.783 115.791 202.88 115.049 202.773 114.323C202.665 113.597 202.356 112.915 201.882 112.356C201.408 111.797 200.787 111.382 200.09 111.159L191.106 108.283L186.169 112.577L197.067 118.373C197.701 118.71 198.414 118.866 199.13 118.824C199.846 118.782 200.536 118.543 201.126 118.134Z" fill="#FFB9B9"/>
<path d="M186.017 115.38L191.94 108.488L169.886 84.2626L159.731 60.6347C159.062 59.0779 157.871 57.8053 156.364 57.0378C154.858 56.2703 153.131 56.0564 151.484 56.4332C150.407 56.6796 149.4 57.1705 148.541 57.8682C147.683 58.5658 146.995 59.4517 146.53 60.4578C146.065 61.4639 145.837 62.5635 145.862 63.6721C145.887 64.7806 146.164 65.8688 146.673 66.8529L159.927 92.4738L186.017 115.38Z" fill="#E6E6E6"/>
<path d="M200.167 206.683L199.032 204.915H196.936V204.144H199.451L200.814 206.265L200.167 206.683Z" fill="#3F3D56"/>
<path d="M195.463 204.915H191.045V204.144H195.463V204.915ZM189.572 204.915H185.155V204.144H189.572V204.915ZM183.682 204.915H179.264V204.144H183.682L183.682 204.915ZM177.791 204.915H173.373V204.144H177.791V204.915ZM171.901 204.915H167.483V204.144H171.901V204.915ZM166.01 204.915L161.917 204.911L161.545 204.862L161.646 204.097L161.993 204.144H166.01V204.915ZM160.085 204.667L155.705 204.083L155.807 203.319L160.186 203.903L160.085 204.667ZM154.246 203.889L149.866 203.304L149.967 202.54L154.347 203.124L154.246 203.889ZM148.406 203.11L144.027 202.526L144.128 201.761L148.508 202.345L148.406 203.11ZM142.567 202.331L138.188 201.747L138.289 200.983L142.668 201.567L142.567 202.331Z" fill="#3F3D56"/>
<path d="M134.811 203.19L134.043 203.168L134.121 200.427L136.829 200.788L136.728 201.552L134.865 201.304L134.811 203.19Z" fill="#3F3D56"/>
<path d="M134.223 223.838L133.455 223.816L133.602 218.654L134.37 218.676L134.223 223.838ZM134.419 216.955L133.651 216.933L133.798 211.771L134.566 211.793L134.419 216.955ZM134.615 210.072L133.847 210.05L133.994 204.888L134.762 204.91L134.615 210.072Z" fill="#3F3D56"/>
<path d="M133.328 228.279L133.406 225.537L134.174 225.559L134.12 227.443L135.993 227.297L136.053 228.066L133.328 228.279Z" fill="#3F3D56"/>
<path d="M137.523 227.952L137.464 227.183L141.876 226.839L141.936 227.608L137.523 227.952ZM143.406 227.493L143.346 226.724L147.759 226.38L147.818 227.149L143.406 227.493ZM149.289 227.034L149.229 226.265L153.642 225.921L153.701 226.69L149.289 227.034ZM155.171 226.576L155.112 225.807L159.524 225.462L159.583 226.231L155.171 226.576ZM161.054 226.117L160.995 225.348L165.407 225.004L165.466 225.773L161.054 226.117ZM166.937 225.658L166.878 224.889L171.29 224.545L171.349 225.314L166.937 225.658ZM172.82 225.2L172.76 224.43L177.173 224.086L177.232 224.855L172.82 225.2ZM178.702 224.741L178.643 223.972L183.055 223.628L183.114 224.397L178.702 224.741ZM184.585 224.282L184.526 223.513L188.938 223.169L188.997 223.938L184.585 224.282ZM190.468 223.823L190.409 223.054L194.821 222.71L194.88 223.479L190.468 223.823ZM196.351 223.365L196.291 222.596L200.704 222.251L200.763 223.02L196.351 223.365ZM202.233 222.906L202.174 222.137L206.586 221.793L206.645 222.562L202.233 222.906Z" fill="#3F3D56"/>
<path d="M208.116 222.447L208.057 221.678L209.713 221.549L208.813 220.148L209.459 219.729L211.057 222.218L208.116 222.447Z" fill="#3F3D56"/>
<path d="M207.853 218.651L204.971 214.163L205.617 213.745L208.499 218.233L207.853 218.651ZM204.01 212.667L201.128 208.179L201.774 207.761L204.656 212.249L204.01 212.667Z" fill="#3F3D56"/>
<path d="M193.67 239.045C208.101 239.045 219.8 227.304 219.8 212.821C219.8 198.337 208.101 186.596 193.67 186.596C179.238 186.596 167.54 198.337 167.54 212.821C167.54 227.304 179.238 239.045 193.67 239.045Z" fill="#0A018E"/>
<path d="M215.188 243.287L176.954 175.22L168.5 183.704L206.158 243.094L215.188 243.287Z" fill="#3F3D56"/>
<path d="M99.3325 241.552L185.216 154.202L192.325 168.278L110.86 245.408L99.3325 241.552Z" fill="#3F3D56"/>
<path d="M134.301 232.296C143.851 232.296 151.593 224.526 151.593 214.942C151.593 205.357 143.851 197.588 134.301 197.588C124.751 197.588 117.009 205.357 117.009 214.942C117.009 224.526 124.751 232.296 134.301 232.296Z" fill="#3F3D56"/>
<path d="M111.245 219.955C111.143 219.955 111.045 219.996 110.973 220.068C110.901 220.141 110.861 220.239 110.86 220.341V223.426C110.861 223.528 110.901 223.626 110.973 223.699C111.045 223.771 111.143 223.812 111.245 223.812H120.851C120.953 223.812 121.051 223.771 121.123 223.699C121.195 223.626 121.236 223.528 121.236 223.426V220.341C121.236 220.239 121.195 220.141 121.123 220.068C121.051 219.996 120.953 219.955 120.851 219.955H111.245Z" fill="#0A018E"/>
<path d="M133.34 176.955C133.238 176.955 133.141 176.996 133.068 177.068C132.996 177.141 132.956 177.239 132.956 177.341V180.426C132.956 180.528 132.996 180.626 133.068 180.699C133.141 180.771 133.238 180.812 133.34 180.812H142.947C143.049 180.812 143.146 180.771 143.218 180.699C143.29 180.626 143.331 180.528 143.331 180.426V177.341C143.331 177.239 143.29 177.141 143.218 177.068C143.146 176.996 143.049 176.955 142.947 176.955H133.34Z" fill="#0A018E"/>
<path d="M180.028 170.592H170.037V162.879L173.88 161.336L180.028 165.964V170.592Z" fill="#3F3D56"/>
<path d="M171.302 159.383L170.26 159.878L172.231 164.061L173.273 163.567L171.302 159.383Z" fill="#3F3D56"/>
<path d="M172.406 154.378C172.333 154.378 172.261 154.399 172.2 154.439L165.412 158.82C165.327 158.875 165.266 158.963 165.245 159.063C165.223 159.162 165.242 159.267 165.297 159.353L166.96 161.948C167.015 162.034 167.102 162.094 167.201 162.116C167.301 162.138 167.405 162.119 167.491 162.064L174.278 157.683C174.364 157.627 174.424 157.54 174.445 157.44C174.467 157.34 174.448 157.236 174.393 157.15L172.731 154.555C172.703 154.512 172.668 154.475 172.626 154.447C172.585 154.418 172.538 154.397 172.489 154.387C172.462 154.381 172.434 154.378 172.406 154.378Z" fill="#0A018E"/>
<path d="M187.713 169.821L179.836 131.449L189.058 129.906L195.347 160.818C195.617 161.938 195.619 163.107 195.353 164.229C195.087 165.351 194.56 166.393 193.816 167.271C193.071 168.149 192.13 168.838 191.07 169.281C190.009 169.724 188.859 169.909 187.713 169.821Z" fill="#3F3D56"/>
<path d="M216.738 123.888L207.615 123.234C207.493 123.225 207.375 123.187 207.27 123.124C207.166 123.06 207.078 122.972 207.014 122.867C206.95 122.763 206.912 122.644 206.903 122.522C206.894 122.4 206.914 122.277 206.962 122.164L220.214 90.7619C220.264 90.6437 220.342 90.5398 220.442 90.4598C220.542 90.3797 220.66 90.326 220.786 90.3034L229.785 88.6907C229.919 88.6666 230.058 88.6789 230.186 88.7264C230.314 88.7738 230.427 88.8547 230.514 88.9607C230.601 89.0667 230.657 89.1939 230.679 89.3293C230.7 89.4647 230.685 89.6034 230.635 89.7311L217.508 123.4C217.448 123.553 217.341 123.683 217.203 123.771C217.064 123.859 216.901 123.9 216.738 123.888Z" fill="#3F3D56"/>
<path d="M208.848 120.843L216.149 121.615L228.061 91.5339L220.376 92.6909L208.848 120.843Z" fill="#0A018E"/>
<path d="M129.305 203.372L119.699 213.014L105.865 152.467L113.55 153.624L129.305 203.372Z" fill="#3F3D56"/>
<path d="M118.11 153.532L116.451 153.032C113.19 154.475 109.643 155.145 106.083 154.99C105.315 154.958 104.588 154.628 104.057 154.069C103.526 153.51 103.232 152.766 103.236 151.994C103.236 151.199 103.551 150.436 104.111 149.874C104.671 149.312 105.431 148.996 106.224 148.996H120.717C121.109 148.996 121.486 149.152 121.763 149.43C122.041 149.709 122.196 150.087 122.196 150.48C122.196 150.977 122.081 151.467 121.859 151.91C121.636 152.354 121.314 152.74 120.917 153.036C120.52 153.333 120.059 153.532 119.572 153.618C119.085 153.704 118.584 153.674 118.11 153.532Z" fill="#3F3D56"/>
<path d="M209.912 115.667C209.541 115.667 209.18 115.789 208.885 116.015L197.087 125.069L183.882 126.797C181.608 127.095 180.033 129.577 179.836 131.834L195.381 129.668C197.54 129.459 199.581 128.58 201.219 127.153L211.019 118.647C211.28 118.421 211.466 118.12 211.552 117.784C211.638 117.449 211.619 117.095 211.498 116.771C211.378 116.446 211.161 116.167 210.878 115.969C210.594 115.772 210.257 115.667 209.912 115.667Z" fill="#3F3D56"/>
<path d="M204.148 109.883C203.777 109.882 203.416 110.004 203.121 110.23L191.324 119.284L178.118 121.013C175.844 121.31 174.27 123.793 174.072 126.05L189.617 123.883C191.776 123.674 193.817 122.795 195.456 121.368L205.255 112.863C205.516 112.636 205.702 112.335 205.788 112C205.874 111.664 205.855 111.311 205.734 110.986C205.614 110.662 205.397 110.382 205.114 110.185C204.83 109.987 204.493 109.882 204.148 109.883Z" fill="#3F3D56"/>
<path d="M211.346 133.184C208.599 133.178 205.891 132.526 203.441 131.279C200.991 130.032 198.866 128.225 197.239 126.004L198.788 124.864C200.03 126.567 201.604 128 203.414 129.076C205.224 130.152 207.232 130.848 209.318 131.123C211.404 131.398 213.523 131.246 215.549 130.676C217.574 130.106 219.463 129.13 221.102 127.806C222.741 126.483 224.096 124.839 225.084 122.976C226.072 121.112 226.674 119.067 226.853 116.963C227.031 114.86 226.783 112.742 226.123 110.737C225.463 108.733 224.405 106.883 223.013 105.3L224.453 104.024C226.681 106.556 228.133 109.679 228.634 113.019C229.136 116.359 228.667 119.773 227.283 122.852C225.899 125.931 223.66 128.544 220.833 130.376C218.006 132.209 214.712 133.184 211.346 133.184Z" fill="#3F3D56"/>
<path d="M224.795 241.359H88.7653V251H224.795V241.359Z" fill="#3F3D56"/>
<path d="M191.459 128.055C192.138 127.783 192.728 127.324 193.161 126.732C193.594 126.141 193.853 125.439 193.909 124.707C193.964 123.974 193.814 123.241 193.476 122.59C193.138 121.939 192.624 121.396 191.994 121.023L183.871 116.216L178.107 119.301L187.449 127.383C187.992 127.853 188.653 128.164 189.36 128.283C190.067 128.401 190.793 128.323 191.459 128.055Z" fill="#FFB9B9"/>
<path d="M127.768 162.108L133.148 165.193L166.367 140.654C167.585 139.818 168.618 138.739 169.4 137.484C170.183 136.229 170.699 134.825 170.915 133.36C171.185 131.508 170.97 129.617 170.291 127.874C169.612 126.131 168.492 124.596 167.041 123.419C159.705 117.439 150.639 112.015 141.025 106.767L126.807 113.709C132.667 125.767 139.171 135.708 148.711 135.691L127.768 162.108Z" fill="#0A018E"/>
<path d="M125.423 169.963C129.887 174.502 135.764 177.749 142.329 180.368C142.824 180.565 143.367 180.603 143.885 180.477C144.402 180.351 144.867 180.067 145.217 179.664C145.642 179.175 145.868 178.544 145.85 177.896C145.832 177.248 145.572 176.63 145.121 176.165L140.866 171.781L138.295 162.59C132.773 165.329 129.153 164.716 128.439 158.978L124.959 163.741C124.286 164.664 123.964 165.798 124.049 166.938C124.134 168.078 124.621 169.151 125.423 169.963Z" fill="#2F2E41"/>
<path d="M110.476 210.7L118.546 211.085L136.991 115.83L105.289 105.61C102.124 117.486 106.823 136.926 115.087 159.794L110.476 210.7Z" fill="#0A018E"/>
<path d="M172.535 53.5474C179.538 53.5474 185.216 47.8495 185.216 40.8209C185.216 33.7923 179.538 28.0945 172.535 28.0945C165.532 28.0945 159.854 33.7923 159.854 40.8209C159.854 47.8495 165.532 53.5474 172.535 53.5474Z" fill="#FFB9B9"/>
<path d="M149.287 56.4399L157.357 62.2247L169.653 49.8839L163.505 42.1709L149.287 56.4399Z" fill="#FFB9B9"/>
<path d="M103.944 106.574C113.896 114.713 124.763 120.063 138.143 117.758C142.187 111.271 145.172 97.6044 150.248 91.7266C161.332 78.8909 166.829 67.45 163.313 57.0182C159.894 54.7752 160.045 54.779 157.549 47.377C137.999 51.0069 119.072 73.1557 103.944 106.574Z" fill="#E6E6E6"/>
<path d="M110.347 218.636C116.091 221.363 122.722 222.389 129.784 222.589C130.316 222.603 130.839 222.452 131.282 222.155C131.725 221.859 132.065 221.432 132.256 220.933C132.488 220.328 132.484 219.657 132.246 219.055C132.008 218.452 131.552 217.961 130.97 217.68L125.474 215.027L119.917 207.279C115.667 211.753 112.057 212.424 109.425 207.279L107.784 212.951C107.468 214.05 107.552 215.226 108.022 216.268C108.492 217.31 109.316 218.15 110.347 218.636Z" fill="#2F2E41"/>
<path d="M177.338 122L184.639 116.601L168.5 88.063L163.832 62.7613C163.524 61.0941 162.644 59.5876 161.346 58.5034C160.047 57.4191 158.411 56.8254 156.721 56.8254C155.616 56.8254 154.526 57.0795 153.534 57.5682C152.543 58.0569 151.676 58.7672 151 59.6445C150.324 60.5219 149.858 61.5429 149.636 62.6293C149.415 63.7157 149.445 64.8386 149.723 65.9116L156.972 93.8478L177.338 122Z" fill="#E6E6E6"/>
<path d="M140.641 180.426H136.414V203.565H140.641V180.426Z" fill="#3F3D56"/>
<path d="M182.572 37.1299C183.068 37.7271 183.705 38.1909 184.425 38.4795C185.144 38.7681 185.924 38.8724 186.694 38.783C188.221 38.5442 189.579 37.2374 189.677 35.6901C189.761 34.3539 188.979 33.1284 188.158 32.0733C186.346 29.7466 184.194 27.708 181.775 26.0265C180.622 25.2251 179.349 24.4874 177.949 24.401C177.256 24.3583 176.562 24.4781 175.868 24.4482C174.593 24.3932 173.398 23.8395 172.154 23.5527C170.877 23.2671 169.554 23.2602 168.274 23.5324C166.994 23.8046 165.787 24.3496 164.735 25.1305C164.033 25.6685 163.399 26.2892 162.845 26.9793C161.313 28.8594 160.286 31.1014 159.861 33.4922C159.192 37.2819 160.027 41.4382 158.212 44.8288C160.341 44.6292 162.048 42.9999 164.071 42.3035C165.572 41.7921 167.201 41.8067 168.693 42.3448C169.077 42.5425 169.51 42.6238 169.94 42.5788C170.294 42.4532 170.604 42.2256 170.831 41.9245L174.699 37.7008C175.486 36.8412 176.38 35.9254 177.538 35.8064C178.229 35.7824 178.916 35.9192 179.545 36.206C181.096 36.7945 182.596 37.5099 184.03 38.3448" fill="#2F2E41"/>
<path d="M175.225 125.278L174.072 126.05L181.757 133.763L186.369 129.52L178.683 123.35L175.225 125.278Z" fill="#3F3D56"/>
<path d="M95.1671 0H0V98.8227H95.1671V0Z" fill="#E6E6E6"/>
<path d="M90.0871 5.27563H5.07996V93.547H90.0871V5.27563Z" fill="white"/>
<path d="M21.6188 95.0896H24.6464L24.6272 93.8663L24.5753 91.1529L24.0954 63.2523L24.0888 63.122L23.8425 48.866L23.2396 14.2112H23.1036L22.4615 49.1198L22.2086 63.1285L22.2021 63.2589L21.6188 95.0896Z" fill="#E6E6E6"/>
<path d="M32.006 89.9689L30.8799 87.8223L22.7996 92.0917L23.9257 94.2383L32.006 89.9689Z" fill="#E6E6E6"/>
<path d="M49.5702 2.6416H45.7275V95.9688H49.5702V2.6416Z" fill="#E6E6E6"/>
<path d="M95.1671 47.377H0V51.2334H95.1671V47.377Z" fill="#E6E6E6"/>
</g>
<defs>
<clipPath id="clip0_3_358">
<rect width="296" height="251" fill="white"/>
</clipPath>
</defs>
</svg>
